<svg width="508" height="393" viewBox="0 0 508 393" fill="none" xmlns="http://www.w3.org/2000/svg">
<rect width="79.3244" height="79.3244" transform="matrix(0.970408 0.241473 -0.694991 0.719018 66.0586 122.402)" fill="url(#paint0_linear_635_5510)"/>
<path d="M10.9219 179.438L87.8989 198.593L109.746 274.783L32.7691 255.629L10.9219 179.438Z" fill="url(#paint1_linear_635_5510)"/>
<rect width="79.3244" height="79.2609" transform="matrix(0.694991 -0.719018 0.275637 0.961262 87.9102 198.592)" fill="url(#paint2_linear_635_5510)"/>
<rect width="79.3244" height="79.3244" transform="matrix(0.970408 0.241473 -0.694991 0.719018 66.0586 122.402)" fill="url(#paint3_linear_635_5510)"/>
<path d="M10.9219 179.438L87.8989 198.593L109.746 274.784L32.7691 255.629L10.9219 179.438Z" fill="url(#paint4_linear_635_5510)"/>
<rect width="79.3244" height="79.2609" transform="matrix(0.694991 -0.719018 0.275637 0.961262 87.9102 198.592)" fill="url(#paint5_linear_635_5510)"/>
<rect width="86.5706" height="86.5706" transform="matrix(0.970407 0.241473 -0.694991 0.719018 215.121 20.6732)" fill="url(#paint6_linear_635_5510)"/>
<path d="M154.949 82.9182L238.958 103.823L262.801 186.973L178.792 166.069L154.949 82.9182Z" fill="url(#paint7_linear_635_5510)"/>
<rect width="86.5706" height="86.5012" transform="matrix(0.694991 -0.719018 0.275637 0.961262 238.973 103.821)" fill="url(#paint8_linear_635_5510)"/>
<rect width="65.2196" height="65.2196" transform="matrix(0.945368 -0.326005 -0.191263 0.981539 372.082 136.101)" fill="url(#paint9_linear_635_5510)"/>
<path d="M359.605 200.111L421.262 178.85L470.444 221.603L408.788 242.865L359.605 200.111Z" fill="url(#paint10_linear_635_5510)"/>
<rect width="65.2196" height="65.1673" transform="matrix(0.191263 -0.981539 0.75471 0.656059 421.262 178.849)" fill="url(#paint11_linear_635_5510)"/>
<rect width="79.3244" height="79.3244" transform="matrix(0.742835 -0.669474 0.207459 0.978244 186.234 278.36)" fill="url(#paint12_linear_635_5510)"/>
<path d="M202.691 355.961L261.616 302.856L336.998 327.348L278.073 380.454L202.691 355.961Z" fill="url(#paint13_linear_635_5510)"/>
<rect width="79.3244" height="79.2609" transform="matrix(-0.207459 -0.978244 0.951057 0.309017 261.621 302.846)" fill="url(#paint14_linear_635_5510)"/>
<defs>
<linearGradient id="paint0_linear_635_5510" x1="67.9446" y1="69.055" x2="-21.5496" y2="51.6732" gradientUnits="userSpaceOnUse">
<stop stop-color="#1461DB"/>
<stop offset="1" stop-color="white"/>
</linearGradient>
<linearGradient id="paint1_linear_635_5510" x1="95.8747" y1="262.172" x2="8.67665" y2="270.47" gradientUnits="userSpaceOnUse">
<stop stop-color="#1461DB"/>
<stop offset="1" stop-color="white"/>
</linearGradient>
<linearGradient id="paint2_linear_635_5510" x1="87.5489" y1="82.5148" x2="-14.8597" y2="76.4334" gradientUnits="userSpaceOnUse">
<stop stop-color="white"/>
<stop offset="1" stop-color="#1461DB"/>
</linearGradient>
<linearGradient id="paint3_linear_635_5510" x1="67.9446" y1="69.055" x2="-21.5496" y2="51.6732" gradientUnits="userSpaceOnUse">
<stop stop-color="#1461DB"/>
<stop offset="1" stop-color="white"/>
</linearGradient>
<linearGradient id="paint4_linear_635_5510" x1="95.8747" y1="262.172" x2="8.67665" y2="270.47" gradientUnits="userSpaceOnUse">
<stop stop-color="#1461DB"/>
<stop offset="1" stop-color="white"/>
</linearGradient>
<linearGradient id="paint5_linear_635_5510" x1="87.5489" y1="82.5148" x2="-14.8597" y2="76.4334" gradientUnits="userSpaceOnUse">
<stop stop-color="white"/>
<stop offset="1" stop-color="#1461DB"/>
</linearGradient>
<linearGradient id="paint6_linear_635_5510" x1="74.1513" y1="75.363" x2="-23.5181" y2="56.3934" gradientUnits="userSpaceOnUse">
<stop stop-color="#1461DB"/>
<stop offset="1" stop-color="white"/>
</linearGradient>
<linearGradient id="paint7_linear_635_5510" x1="247.662" y1="173.209" x2="152.499" y2="182.265" gradientUnits="userSpaceOnUse">
<stop stop-color="#1461DB"/>
<stop offset="1" stop-color="white"/>
</linearGradient>
<linearGradient id="paint8_linear_635_5510" x1="95.5463" y1="90.0524" x2="-16.2171" y2="83.4154" gradientUnits="userSpaceOnUse">
<stop stop-color="white"/>
<stop offset="1" stop-color="#1461DB"/>
</linearGradient>
<linearGradient id="paint9_linear_635_5510" x1="55.8632" y1="56.7761" x2="-17.7178" y2="42.4851" gradientUnits="userSpaceOnUse">
<stop stop-color="#1461DB"/>
<stop offset="1" stop-color="white"/>
</linearGradient>
<linearGradient id="paint10_linear_635_5510" x1="455.232" y1="219.118" x2="398.821" y2="263.887" gradientUnits="userSpaceOnUse">
<stop stop-color="#1461DB"/>
<stop offset="1" stop-color="white"/>
</linearGradient>
<linearGradient id="paint11_linear_635_5510" x1="71.9816" y1="67.8426" x2="-12.2175" y2="62.8426" gradientUnits="userSpaceOnUse">
<stop stop-color="white"/>
<stop offset="1" stop-color="#1461DB"/>
</linearGradient>
<linearGradient id="paint12_linear_635_5510" x1="67.9446" y1="69.055" x2="-21.5496" y2="51.6732" gradientUnits="userSpaceOnUse">
<stop stop-color="#1461DB"/>
<stop offset="1" stop-color="white"/>
</linearGradient>
<linearGradient id="paint13_linear_635_5510" x1="318.786" y1="331.796" x2="276.905" y2="408.727" gradientUnits="userSpaceOnUse">
<stop stop-color="#1461DB"/>
<stop offset="1" stop-color="white"/>
</linearGradient>
<linearGradient id="paint14_linear_635_5510" x1="87.5489" y1="82.5148" x2="-14.8597" y2="76.4334" gradientUnits="userSpaceOnUse">
<stop stop-color="white"/>
<stop offset="1" stop-color="#1461DB"/>
</linearGradient>
</defs>
</svg>
