<svg width="256" height="256" viewBox="0 0 256 256" fill="none" xmlns="http://www.w3.org/2000/svg">
<g clip-path="url(#clip0_915_233)">
<path d="M128 0C94.0523 0 61.495 13.4857 37.4903 37.4903C13.4857 61.495 0 94.0523 0 128C0 161.948 13.4857 194.505 37.4903 218.51C61.495 242.514 94.0523 256 128 256C161.948 256 194.505 242.514 218.51 218.51C242.514 194.505 256 161.948 256 128C256 94.0523 242.514 61.495 218.51 37.4903C194.505 13.4857 161.948 0 128 0ZM161.739 232.352H160.747C160.001 232.403 159.253 232.296 158.551 232.039C157.849 231.781 157.209 231.379 156.672 230.859C156.165 230.335 155.771 229.712 155.514 229.029C155.257 228.347 155.143 227.619 155.179 226.891V211.893C155.25 206.908 155.285 201.874 155.285 196.789C155.267 193.077 154.725 189.385 153.675 185.824C152.68 182.224 150.674 178.985 147.893 176.491C155.328 175.775 162.637 174.086 169.632 171.467C175.533 169.223 180.871 165.713 185.269 161.184C189.611 156.629 192.843 151.125 194.709 145.12C196.975 137.764 198.055 130.095 197.909 122.4C197.96 117.026 197.02 111.689 195.136 106.656C193.229 101.582 190.348 96.9292 186.656 92.96C187.454 90.959 188.034 88.8776 188.384 86.752C188.74 84.6187 188.917 82.4711 188.917 80.3093C188.917 77.5218 188.597 74.7733 187.957 72.064C187.389 69.2929 186.6 66.5714 185.6 63.9253C185.222 63.78 184.821 63.7076 184.416 63.712H183.243C180.782 63.7404 178.386 64.1351 176.053 64.896C173.488 65.6315 170.981 66.5586 168.555 67.6693C166.141 68.7629 163.788 69.9842 161.504 71.328C159.214 72.6862 157.177 73.9733 155.392 75.1893C137.446 70.1999 118.479 70.1999 100.533 75.1893C98.531 73.8532 96.4966 72.5658 94.432 71.328C92.1215 69.9629 89.7275 68.7445 87.264 67.68C84.8394 66.5439 82.3239 65.6126 79.744 64.896C77.4646 64.1425 75.0832 63.7432 72.6827 63.712H71.5093C71.1083 63.709 70.7103 63.7813 70.336 63.9253C69.3388 66.5809 68.5192 69.2997 67.8827 72.064C67.3138 74.7804 67.0258 77.5289 67.0187 80.3093C67.0187 82.4711 67.2 84.6187 67.5627 86.752C67.9253 88.8853 68.4942 90.9547 69.2693 92.96C65.5876 96.9351 62.7178 101.591 60.8213 106.667C58.9265 111.698 57.9755 117.035 58.016 122.411C57.8719 130.065 58.9227 137.694 61.1307 145.024C63.0613 151.029 66.2827 156.544 70.56 161.195C74.9867 165.696 80.32 169.195 86.1973 171.477C93.1627 174.144 100.459 175.851 107.883 176.555C105.803 178.427 104.157 180.732 103.061 183.307C102.012 185.849 101.295 188.517 100.928 191.243C97.0147 193.118 92.734 194.102 88.3947 194.123C84.3659 194.275 80.3915 193.156 77.0347 190.923C73.8173 188.54 71.0931 185.555 69.0133 182.133C68.0858 180.694 67.0442 179.331 65.8987 178.059C64.6934 176.718 63.3649 175.493 61.9307 174.4C60.5197 173.339 58.9691 172.477 57.3227 171.84C55.7051 171.131 53.9582 170.764 52.192 170.763C51.7653 170.777 51.3387 170.812 50.912 170.869C50.3297 170.873 49.7497 170.944 49.184 171.083C48.687 171.211 48.2173 171.428 47.7973 171.723C47.6088 171.831 47.451 171.986 47.339 172.173C47.2271 172.36 47.1645 172.572 47.1573 172.789C47.2021 173.303 47.3591 173.8 47.6171 174.246C47.8752 174.692 48.228 175.076 48.6507 175.371C49.6462 176.16 50.4711 176.768 51.1253 177.195L51.4453 177.419C52.8676 178.521 54.2258 179.705 55.52 180.971C56.7218 182.023 57.7884 183.196 58.72 184.491C59.6871 185.756 60.5084 187.111 61.184 188.555C61.9662 189.977 62.7876 191.623 63.648 193.493C65.6533 198.549 69.216 202.827 73.824 205.707C78.656 208.299 84.0747 209.589 89.568 209.451C91.4311 209.451 93.2871 209.344 95.136 209.131C96.9707 208.839 98.8018 208.516 100.629 208.16V226.752C100.663 227.502 100.537 228.25 100.261 228.948C99.9857 229.646 99.5659 230.277 99.0293 230.802C98.4927 231.326 97.8515 231.732 97.1475 231.992C96.4435 232.251 95.6927 232.36 94.944 232.309H94.2827C69.4084 224.274 48.2204 207.621 34.534 185.351C20.8477 163.08 15.5623 136.654 19.6297 110.833C23.697 85.0112 36.8499 61.4902 56.7197 44.5052C76.5895 27.5202 101.871 18.1874 128.011 18.1874C154.151 18.1874 179.432 27.5202 199.302 44.5052C219.171 61.4902 232.324 85.0112 236.392 110.833C240.459 136.654 235.174 163.08 221.487 185.351C207.801 207.621 186.613 224.274 161.739 232.309V232.352Z" fill="white"/>
</g>
<defs>
<clipPath id="clip0_915_233">
<rect width="256" height="256" fill="white"/>
</clipPath>
</defs>
</svg>
