<svg width="18" height="18" viewBox="0 0 18 18" fill="none" xmlns="http://www.w3.org/2000/svg">
<path d="M2.62426 0.631951L8.80026 6.80795L14.9443 0.663951C15.08 0.519499 15.2435 0.403943 15.4249 0.324211C15.6064 0.244479 15.8021 0.202214 16.0003 0.199951C16.4246 0.199951 16.8316 0.368522 17.1316 0.66858C17.4317 0.968638 17.6003 1.3756 17.6003 1.79995C17.604 1.99611 17.5676 2.19097 17.4933 2.37256C17.419 2.55415 17.3084 2.71865 17.1683 2.85595L10.9443 8.99995L17.1683 15.2239C17.432 15.4819 17.5866 15.8313 17.6003 16.1999C17.6003 16.6243 17.4317 17.0313 17.1316 17.3313C16.8316 17.6314 16.4246 17.7999 16.0003 17.7999C15.7963 17.8084 15.5929 17.7744 15.4028 17.7C15.2128 17.6256 15.0403 17.5126 14.8963 17.3679L8.80026 11.1919L2.64026 17.3519C2.50507 17.4916 2.34356 17.6031 2.16506 17.68C1.98656 17.7568 1.7946 17.7976 1.60026 17.7999C1.17591 17.7999 0.768947 17.6314 0.468889 17.3313C0.168831 17.0313 0.000260331 16.6243 0.000260331 16.1999C-0.00347006 16.0038 0.032925 15.8089 0.107212 15.6273C0.181499 15.4457 0.292112 15.2813 0.43226 15.1439L6.65626 8.99995L0.43226 2.77595C0.168556 2.51797 0.0139237 2.16861 0.000260331 1.79995C0.000260331 1.3756 0.168831 0.968638 0.468889 0.66858C0.768947 0.368522 1.17591 0.199951 1.60026 0.199951C1.98426 0.204751 2.35226 0.359951 2.62426 0.631951Z" fill="black"/>
</svg>
