<svg width="138" height="120" viewBox="0 0 138 120" fill="none" xmlns="http://www.w3.org/2000/svg">
<path opacity="0.03" d="M69 32.4286C73.5714 14.3829 90.8371 5.1686 128.429 5.00003C129.03 4.99777 129.625 5.11446 130.181 5.3434C130.736 5.57233 131.241 5.90897 131.666 6.33392C132.091 6.75886 132.428 7.26372 132.657 7.81937C132.886 8.37502 133.002 8.97049 133 9.57146V91.8571C133 93.0695 132.518 94.2323 131.661 95.0896C130.804 95.9469 129.641 96.4285 128.429 96.4285C91.8571 96.4285 77.7286 103.803 69 114.714M69 32.4286C64.4286 14.3829 47.1629 5.1686 9.57146 5.00003C8.9705 4.99777 8.37503 5.11446 7.81937 5.3434C7.26372 5.57233 6.75887 5.90897 6.33392 6.33392C5.90897 6.75886 5.57233 7.26372 5.3434 7.81937C5.11446 8.37502 4.99777 8.97049 5.00003 9.57146V91.3056C5.00003 94.1285 6.7486 96.4285 9.57146 96.4285C46.1429 96.4285 60.3229 103.857 69 114.714M69 32.4286V114.714" stroke="black" stroke-width="10" stroke-linecap="round" stroke-linejoin="round"/>
</svg>
