<svg width="177" height="177" viewBox="0 0 177 177" fill="none" xmlns="http://www.w3.org/2000/svg">
<g opacity="0.03">
<path  d="M164.317 55C157.829 40.1352 147.145 27.4866 133.574 18.6052C120.003 9.72369 104.135 4.99538 87.9167 5C44.7083 5 9.175 37.8917 5 80" stroke="black" stroke-width="10" stroke-linecap="round" stroke-linejoin="round"/>
<path d="M137.917 55H166.251C166.907 55 167.558 54.8707 168.164 54.6194C168.771 54.3681 169.322 53.9998 169.786 53.5355C170.251 53.0712 170.619 52.52 170.87 51.9134C171.121 51.3068 171.251 50.6566 171.251 50V21.6667M11.9258 121.667C24.7924 151.1 54.1591 171.667 88.3258 171.667C131.542 171.667 167.076 138.775 171.251 96.6667" stroke="black" stroke-width="10" stroke-linecap="round" stroke-linejoin="round"/>
<path d="M38.3333 121.667H10C8.67392 121.667 7.40215 122.193 6.46447 123.131C5.52678 124.069 5 125.341 5 126.667V155" stroke="black" stroke-width="10" stroke-linecap="round" stroke-linejoin="round"/>
<path d="M108.751 113.333C109.856 113.333 110.916 112.894 111.698 112.113C112.479 111.332 112.918 110.272 112.918 109.167C112.918 108.062 112.479 107.002 111.698 106.22C110.916 105.439 109.856 105 108.751 105C107.646 105 106.586 105.439 105.805 106.22C105.024 107.002 104.585 108.062 104.585 109.167C104.585 110.272 105.024 111.332 105.805 112.113C106.586 112.894 107.646 113.333 108.751 113.333ZM67.0846 71.6667C68.1897 71.6667 69.2495 71.2277 70.0309 70.4463C70.8123 69.6649 71.2513 68.6051 71.2513 67.5C71.2513 66.3949 70.8123 65.3351 70.0309 64.5537C69.2495 63.7723 68.1897 63.3333 67.0846 63.3333C65.9796 63.3333 64.9198 63.7723 64.1384 64.5537C63.357 65.3351 62.918 66.3949 62.918 67.5C62.918 68.6051 63.357 69.6649 64.1384 70.4463C64.9198 71.2277 65.9796 71.6667 67.0846 71.6667Z" stroke="black" stroke-width="10" stroke-linecap="round" stroke-linejoin="round"/>
<path d="M112.918 63.3333L62.918 113.333" stroke="black" stroke-width="10" stroke-linecap="round" stroke-linejoin="round"/>
</g>
</svg>
