<svg width="230" height="219" viewBox="0 0 230 219" fill="none" xmlns="http://www.w3.org/2000/svg">
<path opacity="0.06" d="M42.85 92.7999C44.2042 92.7999 45.4696 92.1783 47.9893 90.9129L68.2468 80.8342C77.2156 76.3609 81.7 74.1298 81.7 70.6V26.2M42.85 92.7999C41.4958 92.7999 40.2304 92.1783 37.7107 90.9129L17.4532 80.8342C8.4844 76.3609 4 74.1298 4 70.6V26.2M42.85 92.7999V48.4M81.7 26.2C81.7 22.6702 77.2156 20.428 68.2468 15.9658L47.9893 5.887C45.4696 4.6327 44.2153 4 42.85 4C41.4958 4 40.2304 4.6327 37.7107 5.887L17.4532 15.9658C8.4844 20.4391 4 22.6702 4 26.2M81.7 26.2C81.7 29.7298 77.2156 31.972 68.2468 36.4342L47.9893 46.513C45.4696 47.7673 44.2153 48.4 42.85 48.4M4 26.2C4 29.7298 8.4844 31.972 17.4532 36.4342L37.7107 46.513C40.2304 47.7673 41.4847 48.4 42.85 48.4M187.15 92.7999C188.504 92.7999 189.77 92.1783 192.289 90.9129L212.547 80.8342C221.516 76.3609 226 74.1298 226 70.6V26.2M187.15 92.7999C185.796 92.7999 184.53 92.1783 182.011 90.9129L161.753 80.8342C152.784 76.3609 148.3 74.1298 148.3 70.6V26.2M187.15 92.7999V48.4M226 26.2C226 22.6702 221.516 20.428 212.547 15.9658L192.289 5.887C189.77 4.6327 188.515 4 187.15 4C185.796 4 184.53 4.6327 182.011 5.887L161.753 15.9658C152.784 20.4391 148.3 22.6702 148.3 26.2M226 26.2C226 29.7298 221.516 31.972 212.547 36.4342L192.289 46.513C189.77 47.7673 188.515 48.4 187.15 48.4M148.3 26.2C148.3 29.7298 152.784 31.972 161.753 36.4342L182.011 46.513C184.53 47.7673 185.785 48.4 187.15 48.4M109.45 48.4H120.55M4 115V153.85C4 169.434 4 177.238 7.7407 182.832C9.3608 185.257 11.4429 187.339 13.8679 188.959C19.4623 192.7 27.2656 192.7 42.85 192.7M226 115V153.85C226 169.434 226 177.238 222.259 182.832C220.639 185.257 218.557 187.339 216.132 188.959C210.538 192.7 202.734 192.7 187.15 192.7M95.575 164.184C97.5138 164.162 99.6709 164.154 102.046 164.162H127.954C130.322 164.162 132.479 164.169 134.425 164.184M95.575 164.184C87.5497 164.295 82.9987 164.883 79.9462 167.869C76.15 171.588 76.15 177.571 76.15 189.525C76.15 201.491 76.15 207.474 79.9462 211.181C83.7313 214.9 89.8363 214.9 102.046 214.9H127.954C140.164 214.9 146.269 214.9 150.054 211.181C153.85 207.474 153.85 201.491 153.85 189.536C153.85 177.571 153.85 171.588 150.054 167.869C147.001 164.872 142.45 164.295 134.425 164.184M95.575 164.184V145.125C95.575 134.614 104.277 126.1 115 126.1C125.723 126.1 134.425 134.625 134.425 145.125V164.184" stroke="black" stroke-width="7" stroke-linecap="round" stroke-linejoin="round"/>
</svg>
