<svg width="256" height="213" viewBox="0 0 256 213" fill="none" xmlns="http://www.w3.org/2000/svg">
<path d="M17.5961 91.3371C86.3285 61.3983 132.15 41.6601 155.061 32.1226C220.552 4.89112 234.144 0.161624 243.021 0.0013961C244.973 -0.0299129 249.319 0.45261 252.156 2.74553C254.513 4.67932 255.176 7.29455 255.508 9.13073C255.802 10.9651 256.207 15.1457 255.876 18.4092C252.34 55.6853 236.98 146.143 229.171 187.894C225.893 205.56 219.373 211.482 213.075 212.061C199.372 213.321 188.985 203.014 175.725 194.325C154.987 180.722 143.274 172.258 123.126 158.987C99.8466 143.649 114.949 135.218 128.209 121.442C131.671 117.836 192.006 62.9711 193.147 57.9948C193.295 57.3723 193.442 55.0518 192.042 53.8289C190.68 52.6023 188.654 53.0222 187.18 53.3537C185.081 53.8252 151.967 75.7341 87.7282 119.077C78.3355 125.538 69.8269 128.687 62.1654 128.521C53.7672 128.341 37.5602 123.762 25.5154 119.85C10.7818 115.051 -0.96828 112.513 0.0630751 104.362C0.578752 100.118 6.43537 95.7756 17.5961 91.3371Z" fill="white"/>
</svg>
