<svg width="282" height="259" viewBox="0 0 282 259" fill="none" xmlns="http://www.w3.org/2000/svg">
<path opacity="0.07" d="M131.6 129.236C131.6 118.858 127.928 109.998 120.584 102.655C113.241 95.3118 104.379 91.6404 94 91.6404C83.6208 91.6404 74.7594 95.3118 67.4156 102.655C60.0719 109.998 56.4 118.858 56.4 129.236C56.4 139.614 60.0719 148.475 67.4156 155.818C74.7594 163.161 83.6208 166.832 94 166.832C104.379 166.832 113.241 163.161 120.584 155.818C127.928 148.475 131.6 139.614 131.6 129.236ZM244.4 204.428C244.4 199.337 242.54 194.932 238.819 191.211C235.098 187.491 230.692 185.63 225.6 185.63C220.508 185.63 216.102 187.491 212.381 191.211C208.66 194.932 206.8 199.337 206.8 204.428C206.8 209.618 208.636 214.048 212.308 217.719C215.98 221.391 220.41 223.227 225.6 223.227C230.79 223.227 235.22 221.391 238.892 217.719C242.564 214.048 244.4 209.618 244.4 204.428ZM244.4 54.0443C244.4 48.9532 242.54 44.5474 238.819 40.827C235.098 37.1065 230.692 35.2463 225.6 35.2463C220.508 35.2463 216.102 37.1065 212.381 40.827C208.66 44.5474 206.8 48.9532 206.8 54.0443C206.8 59.2333 208.636 63.6636 212.308 67.3351C215.98 71.0066 220.41 72.8423 225.6 72.8423C230.79 72.8423 235.22 71.0066 238.892 67.3351C242.564 63.6636 244.4 59.2333 244.4 54.0443ZM188 115.872V143.041C188 144.02 187.657 144.975 186.972 145.905C186.286 146.835 185.503 147.349 184.622 147.447L161.856 150.972C160.779 154.398 159.212 158.119 157.156 162.133C160.485 166.832 164.892 172.462 170.375 179.022C171.06 180.099 171.403 181.078 171.403 181.959C171.403 183.134 171.06 184.064 170.375 184.749C168.123 187.686 164.084 192.068 158.258 197.893C152.432 203.719 148.589 206.631 146.728 206.631C145.651 206.631 144.623 206.289 143.644 205.603L126.753 192.386C123.13 194.246 119.36 195.764 115.444 196.939C114.367 207.513 113.241 215.1 112.066 219.702C111.38 222.052 109.911 223.227 107.659 223.227H80.3406C79.2635 223.227 78.2844 222.859 77.4031 222.125C76.5219 221.391 76.0323 220.534 75.9344 219.555L72.5562 197.086C69.2271 196.106 65.5552 194.589 61.5406 192.533L44.2094 205.603C43.524 206.289 42.5448 206.631 41.2719 206.631C40.1948 206.631 39.1667 206.24 38.1875 205.456C24.0875 192.435 17.0375 184.602 17.0375 181.959C17.0375 181.078 17.3802 180.148 18.0656 179.169C19.0448 177.798 21.0521 175.203 24.0875 171.385C27.1229 167.567 29.424 164.581 30.9906 162.427C28.7385 158.119 27.025 154.105 25.85 150.384L3.525 146.86C2.54583 146.762 1.71354 146.297 1.02812 145.464C0.342708 144.632 0 143.678 0 142.601V115.432C0 114.453 0.342708 113.498 1.02812 112.568C1.71354 111.638 2.49687 111.124 3.37812 111.026L26.1437 107.501C27.2208 104.074 28.7875 100.354 30.8437 96.3399C27.5146 91.6404 23.1083 86.0107 17.625 79.451C16.9396 78.374 16.5969 77.395 16.5969 76.5138C16.5969 75.3389 16.9396 74.3599 17.625 73.5766C19.7792 70.6394 23.7937 66.2826 29.6687 60.5061C35.5437 54.7297 39.4115 51.8414 41.2719 51.8414C42.349 51.8414 43.3771 52.1841 44.3562 52.8694L61.2469 66.0868C64.576 64.3245 68.3458 62.758 72.5562 61.3873C73.6333 50.8134 74.7594 43.2746 75.9344 38.7709C76.6198 36.4212 78.0885 35.2463 80.3406 35.2463H107.659C108.736 35.2463 109.716 35.6134 110.597 36.3477C111.478 37.082 111.968 37.9387 112.066 38.9178L115.444 61.3873C118.773 62.3664 122.445 63.8839 126.459 65.9399L143.791 52.8694C144.574 52.1841 145.553 51.8414 146.728 51.8414C147.805 51.8414 148.833 52.233 149.812 53.0163C163.912 66.0378 170.962 73.8703 170.962 76.5138C170.962 77.2971 170.62 78.2272 169.934 79.3042C168.759 80.8707 166.703 83.5141 163.766 87.2346C160.828 90.955 158.625 93.8922 157.156 96.0461C159.408 100.746 161.073 104.76 162.15 108.089L184.475 111.466C185.454 111.662 186.286 112.176 186.972 113.008C187.657 113.841 188 114.795 188 115.872ZM282 194.148V214.709C282 216.275 274.705 217.793 260.116 219.261C258.941 221.905 257.472 224.45 255.709 226.898C260.703 237.961 263.2 244.717 263.2 247.165C263.2 247.556 263.004 247.899 262.612 248.193C250.667 255.144 244.596 258.62 244.4 258.62C243.617 258.62 241.365 256.319 237.644 251.717C233.923 247.116 231.377 243.787 230.006 241.731C228.048 241.927 226.579 242.025 225.6 242.025C224.621 242.025 223.152 241.927 221.194 241.731C219.823 243.787 217.277 247.116 213.556 251.717C209.835 256.319 207.583 258.62 206.8 258.62C206.604 258.62 200.533 255.144 188.587 248.193C188.196 247.899 188 247.556 188 247.165C188 244.717 190.497 237.961 195.491 226.898C193.728 224.45 192.259 221.905 191.084 219.261C176.495 217.793 169.2 216.275 169.2 214.709V194.148C169.2 192.582 176.495 191.064 191.084 189.596C192.357 186.756 193.826 184.211 195.491 181.959C190.497 170.896 188 164.14 188 161.692C188 161.301 188.196 160.958 188.587 160.664C188.979 160.469 190.693 159.489 193.728 157.727C196.764 155.965 199.652 154.3 202.394 152.734C205.135 151.167 206.604 150.384 206.8 150.384C207.583 150.384 209.835 152.66 213.556 157.213C217.277 161.766 219.823 165.07 221.194 167.126C223.152 166.93 224.621 166.832 225.6 166.832C226.579 166.832 228.048 166.93 230.006 167.126C235 160.175 239.504 154.692 243.519 150.678L244.4 150.384C244.792 150.384 250.862 153.811 262.612 160.664C263.004 160.958 263.2 161.301 263.2 161.692C263.2 164.14 260.703 170.896 255.709 181.959C257.374 184.211 258.843 186.756 260.116 189.596C274.705 191.064 282 192.582 282 194.148ZM282 43.7641V64.3245C282 65.891 274.705 67.4085 260.116 68.8771C258.941 71.5206 257.472 74.0662 255.709 76.5138C260.703 87.5772 263.2 94.3328 263.2 96.7804C263.2 97.1721 263.004 97.5147 262.612 97.8085C250.667 104.76 244.596 108.235 244.4 108.235C243.617 108.235 241.365 105.935 237.644 101.333C233.923 96.7315 231.377 93.4027 230.006 91.3466C228.048 91.5424 226.579 91.6404 225.6 91.6404C224.621 91.6404 223.152 91.5424 221.194 91.3466C219.823 93.4027 217.277 96.7315 213.556 101.333C209.835 105.935 207.583 108.235 206.8 108.235C206.604 108.235 200.533 104.76 188.587 97.8085C188.196 97.5147 188 97.1721 188 96.7804C188 94.3328 190.497 87.5772 195.491 76.5138C193.728 74.0662 192.259 71.5206 191.084 68.8771C176.495 67.4085 169.2 65.891 169.2 64.3245V43.7641C169.2 42.1976 176.495 40.6801 191.084 39.2115C192.357 36.3722 193.826 33.8266 195.491 31.5748C190.497 20.5114 188 13.7558 188 11.3082C188 10.9166 188.196 10.5739 188.587 10.2802C188.979 10.0844 190.693 9.10529 193.728 7.34298C196.764 5.58066 199.652 3.91625 202.394 2.34975C205.135 0.783251 206.604 0 206.8 0C207.583 0 209.835 2.27632 213.556 6.82897C217.277 11.3816 219.823 14.686 221.194 16.742C223.152 16.5462 224.621 16.4483 225.6 16.4483C226.579 16.4483 228.048 16.5462 230.006 16.742C235 9.79064 239.504 4.30788 243.519 0.293719L244.4 0C244.792 0 250.862 3.42672 262.612 10.2802C263.004 10.5739 263.2 10.9166 263.2 11.3082C263.2 13.7558 260.703 20.5114 255.709 31.5748C257.374 33.8266 258.843 36.3722 260.116 39.2115C274.705 40.6801 282 42.1976 282 43.7641Z" fill="black"/>
</svg>
